<?xml version="1.0" encoding="utf-8"?>
<!-- Generator: Adobe Illustrator 18.1.1, SVG Export Plug-In . SVG Version: 6.00 Build 0)  -->
<svg version="1.1" xmlns="http://www.w3.org/2000/svg" xmlns:xlink="http://www.w3.org/1999/xlink" x="0px" y="0px"
	 width="1147.2px" height="655.4px" viewBox="0 0 1147.2 655.4" enable-background="new 0 0 1147.2 655.4" xml:space="preserve">
<symbol  id="Tree_5_" viewBox="-17 -29.7 34 59">
	
		<polygon id="XMLID_161_" fill="#FFFFFF" stroke="#DDDCDC" stroke-width="2" stroke-linecap="round" stroke-linejoin="round" stroke-miterlimit="10" points="
		4,-28.7 -4,-28.7 -4,-16.7 4,-16.7 	"/>
	
		<polygon id="XMLID_160_" fill="#FFFFFF" stroke="#DDDCDC" stroke-width="2" stroke-linecap="round" stroke-linejoin="round" stroke-miterlimit="10" points="
		16,-16.7 -16,-16.7 -10,-4.8 10,-4.8 	"/>
	
		<polygon id="XMLID_105_" fill="#FFFFFF" stroke="#DDDCDC" stroke-width="2" stroke-linecap="round" stroke-linejoin="round" stroke-miterlimit="10" points="
		14,-4.8 -14,-4.8 -8,7.2 8,7.2 	"/>
	
		<polygon id="XMLID_104_" fill="#FFFFFF" stroke="#DDDCDC" stroke-width="2" stroke-linecap="round" stroke-linejoin="round" stroke-miterlimit="10" points="
		12,7.2 -12,7.2 0,28.2 0,28.2 	"/>
</symbol>
<symbol  id="sign" viewBox="-15.8 -11.9 31.7 24.9">
	<polyline id="XMLID_252_" fill="#FFFFFF" stroke="#8161A6" stroke-width="2" stroke-miterlimit="10" points="2.6,-11.9 2.6,1.5 
		14.8,1.5 14.8,11.9 -14.8,11.9 -14.8,1.5 -2.6,1.5 -2.6,-11.9 	"/>
	<g id="XMLID_244_">
		<g id="XMLID_247_">
			
				<line id="XMLID_251_" fill="none" stroke="#8161A6" stroke-width="2" stroke-miterlimit="10" x1="-10.1" y1="6.9" x2="-8.6" y2="6.9"/>
			
				<line id="XMLID_249_" fill="none" stroke="#8161A6" stroke-width="2" stroke-miterlimit="10" stroke-dasharray="3.4074,3.4074" x1="-5.2" y1="6.9" x2="6.8" y2="6.9"/>
			
				<line id="XMLID_248_" fill="none" stroke="#8161A6" stroke-width="2" stroke-miterlimit="10" x1="8.5" y1="6.9" x2="10" y2="6.9"/>
		</g>
	</g>
</symbol>
<g id="Layer_1">
	<g id="XMLID_48_" display="none">
		
			<polygon id="XMLID_3_" display="inline" fill="#FFFFFF" stroke="#C1C1C0" stroke-width="2" stroke-linecap="round" stroke-linejoin="round" stroke-miterlimit="10" points="
			252.7,-272.1 281,-320.4 299,-378.4 376.3,-493.5 425,-548.1 454,-651.1 508,-697.5 523.6,-648.1 560.9,-609.3 606,-509.1 
			657.9,-447.6 686,-396.3 741.3,-340.9 763.3,-272.1 		"/>
		
			<line id="XMLID_23_" display="inline" fill="none" stroke="#C1C1C0" stroke-width="2" stroke-linecap="round" stroke-linejoin="round" stroke-miterlimit="10" x1="438.6" y1="-594.7" x2="454.7" y2="-578.5"/>
		
			<line id="XMLID_24_" display="inline" fill="none" stroke="#C1C1C0" stroke-width="2" stroke-linecap="round" stroke-linejoin="round" stroke-miterlimit="10" x1="470.9" y1="-594.7" x2="454.7" y2="-578.5"/>
		
			<line id="XMLID_26_" display="inline" fill="none" stroke="#C1C1C0" stroke-width="2" stroke-linecap="round" stroke-linejoin="round" stroke-miterlimit="10" x1="470.9" y1="-594.7" x2="487" y2="-578.5"/>
		
			<line id="XMLID_25_" display="inline" fill="none" stroke="#C1C1C0" stroke-width="2" stroke-linecap="round" stroke-linejoin="round" stroke-miterlimit="10" x1="503.1" y1="-594.7" x2="487" y2="-578.5"/>
		
			<line id="XMLID_28_" display="inline" fill="none" stroke="#C1C1C0" stroke-width="2" stroke-linecap="round" stroke-linejoin="round" stroke-miterlimit="10" x1="503.1" y1="-594.7" x2="519.3" y2="-578.5"/>
		
			<line id="XMLID_27_" display="inline" fill="none" stroke="#C1C1C0" stroke-width="2" stroke-linecap="round" stroke-linejoin="round" stroke-miterlimit="10" x1="535.4" y1="-594.7" x2="519.3" y2="-578.5"/>
		
			<line id="XMLID_30_" display="inline" fill="none" stroke="#C1C1C0" stroke-width="2" stroke-linecap="round" stroke-linejoin="round" stroke-miterlimit="10" x1="535.4" y1="-594.7" x2="551.6" y2="-578.5"/>
		
			<line id="XMLID_29_" display="inline" fill="none" stroke="#C1C1C0" stroke-width="2" stroke-linecap="round" stroke-linejoin="round" stroke-miterlimit="10" x1="567.7" y1="-594.7" x2="551.6" y2="-578.5"/>
		
			<line id="XMLID_31_" display="inline" fill="none" stroke="#C1C1C0" stroke-width="2" stroke-linecap="round" stroke-linejoin="round" stroke-miterlimit="10" x1="404" y1="-387.3" x2="414" y2="-436.1"/>
		
			<line id="XMLID_32_" display="inline" fill="none" stroke="#C1C1C0" stroke-width="2" stroke-linecap="round" stroke-linejoin="round" stroke-miterlimit="10" x1="414" y1="-436.1" x2="446.6" y2="-484.8"/>
		
			<line id="XMLID_33_" display="inline" fill="none" stroke="#C1C1C0" stroke-width="2" stroke-linecap="round" stroke-linejoin="round" stroke-miterlimit="10" x1="611" y1="-403.8" x2="627.2" y2="-352.9"/>
		
			<line id="XMLID_34_" display="inline" fill="none" stroke="#C1C1C0" stroke-width="2" stroke-linecap="round" stroke-linejoin="round" stroke-miterlimit="10" x1="627.2" y1="-352.9" x2="662" y2="-326.4"/>
		
			<line id="XMLID_35_" display="inline" fill="none" stroke="#C1C1C0" stroke-width="2" stroke-linecap="round" stroke-linejoin="round" stroke-miterlimit="10" x1="662" y1="-326.4" x2="670" y2="-308.3"/>
		
			<line id="XMLID_36_" display="inline" fill="none" stroke="#C1C1C0" stroke-width="2" stroke-linecap="round" stroke-linejoin="round" stroke-miterlimit="10" x1="299" y1="-320.4" x2="311" y2="-358.9"/>
		
			<line id="XMLID_37_" display="inline" fill="none" stroke="#C1C1C0" stroke-width="2" stroke-linecap="round" stroke-linejoin="round" stroke-miterlimit="10" x1="311" y1="-358.9" x2="342" y2="-397.8"/>
		
			<line id="XMLID_38_" display="inline" fill="none" stroke="#C1C1C0" stroke-width="2" stroke-linecap="round" stroke-linejoin="round" stroke-miterlimit="10" x1="559.6" y1="-561.1" x2="567.7" y2="-518.1"/>
		
			<line id="XMLID_39_" display="inline" fill="none" stroke="#C1C1C0" stroke-width="2" stroke-linecap="round" stroke-linejoin="round" stroke-miterlimit="10" x1="567.7" y1="-518.1" x2="611" y2="-478.1"/>
		
			<line id="XMLID_40_" display="inline" fill="none" stroke="#C1C1C0" stroke-width="2" stroke-linecap="round" stroke-linejoin="round" stroke-miterlimit="10" x1="611" y1="-478.1" x2="617" y2="-460.4"/>
		
			<line id="XMLID_41_" display="inline" fill="none" stroke="#C1C1C0" stroke-width="2" stroke-linecap="round" stroke-linejoin="round" stroke-miterlimit="10" x1="497" y1="-444.1" x2="487" y2="-397.8"/>
		
			<line id="XMLID_42_" display="inline" fill="none" stroke="#C1C1C0" stroke-width="2" stroke-linecap="round" stroke-linejoin="round" stroke-miterlimit="10" x1="487" y1="-397.8" x2="483" y2="-358.9"/>
		
			<line id="XMLID_43_" display="inline" fill="none" stroke="#C1C1C0" stroke-width="2" stroke-linecap="round" stroke-linejoin="round" stroke-miterlimit="10" x1="508" y1="-549.1" x2="519.3" y2="-513.1"/>
		
			<line id="XMLID_44_" display="inline" fill="none" stroke="#C1C1C0" stroke-width="2" stroke-linecap="round" stroke-linejoin="round" stroke-miterlimit="10" x1="519.3" y1="-513.1" x2="527.3" y2="-478.1"/>
		
			<line id="XMLID_45_" display="inline" fill="none" stroke="#C1C1C0" stroke-width="2" stroke-linecap="round" stroke-linejoin="round" stroke-miterlimit="10" x1="527.3" y1="-478.1" x2="543.5" y2="-453.1"/>
		
			<line id="XMLID_47_" display="inline" fill="none" stroke="#C1C1C0" stroke-width="2" stroke-linecap="round" stroke-linejoin="round" stroke-miterlimit="10" x1="393" y1="-305.3" x2="424" y2="-339.6"/>
	</g>
	<g id="_x31_lyNaA.tif" display="none">
		
			<image display="inline" overflow="visible" width="1160" height="772" id="Layer_0_1_" xlink:href="400F88BF4DCC73C4.png"  transform="matrix(1 0 0 1 -281 -943.0655)">
		</image>
	</g>
	<g id="Tree_1_" display="none">
		
			<polyline id="XMLID_14_" display="inline" fill="none" stroke="#F8C46B" stroke-width="2" stroke-linecap="round" stroke-linejoin="round" stroke-miterlimit="10" points="
			533.1,-465.7 530.8,-474.2 536.5,-475.7 538.7,-467.2 		"/>
		
			<polygon id="XMLID_164_" display="inline" fill="#FFFFFF" stroke="#93C957" stroke-width="2" stroke-linecap="round" stroke-linejoin="round" stroke-miterlimit="10" points="
			544.9,-477.9 522.4,-471.9 524.4,-481.5 538.4,-485.2 		"/>
		
			<polygon id="XMLID_163_" display="inline" fill="#FFFFFF" stroke="#93C957" stroke-width="2" stroke-linecap="round" stroke-linejoin="round" stroke-miterlimit="10" points="
			541.3,-486 521.6,-480.7 523.6,-490.3 534.8,-493.3 		"/>
		
			<polygon id="XMLID_162_" display="inline" fill="#FFFFFF" stroke="#93C957" stroke-width="2" stroke-linecap="round" stroke-linejoin="round" stroke-miterlimit="10" points="
			537.6,-494 520.7,-489.5 525.2,-506.5 525.2,-506.5 		"/>
	</g>
	<g id="Tree" display="none">
		
			<polyline id="XMLID_158_" display="inline" fill="none" stroke="#F8C46B" stroke-width="2" stroke-linecap="round" stroke-linejoin="round" stroke-miterlimit="10" points="
			544.7,-468.5 543.9,-475.6 548.6,-476.1 549.4,-469 		"/>
		
			<polygon id="XMLID_154_" display="inline" fill="#FFFFFF" stroke="#93C957" stroke-width="2" stroke-linecap="round" stroke-linejoin="round" stroke-miterlimit="10" points="
			555.6,-476.8 536.9,-474.8 539.6,-482.2 551.4,-483.5 		"/>
		
			<polygon id="XMLID_107_" display="inline" fill="#FFFFFF" stroke="#93C957" stroke-width="2" stroke-linecap="round" stroke-linejoin="round" stroke-miterlimit="10" points="
			553.7,-483.7 537.3,-482 540.1,-489.4 549.4,-490.4 		"/>
		
			<polygon id="XMLID_106_" display="inline" fill="#FFFFFF" stroke="#93C957" stroke-width="2" stroke-linecap="round" stroke-linejoin="round" stroke-miterlimit="10" points="
			551.8,-490.6 537.7,-489.1 543.4,-502.2 543.4,-502.2 		"/>
	</g>
	<g id="Tree_2_" display="none">
		
			<polyline id="XMLID_8_" display="inline" fill="none" stroke="#F8C46B" stroke-width="2" stroke-linecap="round" stroke-linejoin="round" stroke-miterlimit="10" points="
			773.4,-644.3 776.7,-654.1 783.2,-651.9 780,-642.1 		"/>
		
			<polygon id="XMLID_169_" display="inline" fill="#FFFFFF" stroke="#93C957" stroke-width="2" stroke-linecap="round" stroke-linejoin="round" stroke-miterlimit="10" points="
			793,-648.6 766.9,-657.4 775.1,-665.5 791.4,-660.1 		"/>
		
			<polygon id="XMLID_168_" display="inline" fill="#FFFFFF" stroke="#93C957" stroke-width="2" stroke-linecap="round" stroke-linejoin="round" stroke-miterlimit="10" points="
			794.7,-659 771.8,-666.6 780,-674.8 793,-670.4 		"/>
		
			<polygon id="XMLID_159_" display="inline" fill="#FFFFFF" stroke="#93C957" stroke-width="2" stroke-linecap="round" stroke-linejoin="round" stroke-miterlimit="10" points="
			796.3,-669.3 776.7,-675.8 792.2,-689.7 792.2,-689.7 		"/>
	</g>
	<g id="Tree_4_" display="none">
	</g>
	<g id="Tree_3_" display="none">
	</g>
</g>
<g id="Layer_7">
	<g id="cabin">
		<g id="XMLID_517_">
			<path id="XMLID_529_" fill="none" stroke="#F8C46B" stroke-width="2" stroke-miterlimit="10" d="M95.5,561.1l-21.7-11.7
				c-0.7-0.4-1.1-1.1-1.1-1.9l0,0c0-1.6,1.7-2.7,3.2-1.9l21.7,11.7c0.7,0.4,1.1,1.1,1.1,1.9l0,0C98.7,560.8,96.9,561.8,95.5,561.1z"
				/>
			<path id="XMLID_528_" fill="none" stroke="#F8C46B" stroke-width="2" stroke-miterlimit="10" d="M95.5,556.1l-21.7-11.7
				c-0.7-0.4-1.1-1.1-1.1-1.9l0,0c0-1.6,1.7-2.7,3.2-1.9l21.7,11.7c0.7,0.4,1.1,1.1,1.1,1.9l0,0C98.7,555.8,96.9,556.8,95.5,556.1z"
				/>
			<path id="XMLID_527_" fill="none" stroke="#F8C46B" stroke-width="2" stroke-miterlimit="10" d="M95.5,551.1l-21.7-11.7
				c-0.7-0.4-1.1-1.1-1.1-1.9l0,0c0-1.6,1.7-2.7,3.2-1.9l21.7,11.7c0.7,0.4,1.1,1.1,1.1,1.9l0,0C98.7,550.8,96.9,551.8,95.5,551.1z"
				/>
			<path id="XMLID_526_" fill="none" stroke="#F8C46B" stroke-width="2" stroke-miterlimit="10" d="M95.5,546.1l-21.7-11.7
				c-0.7-0.4-1.1-1.1-1.1-1.9v0c0-1.6,1.7-2.7,3.2-1.9l21.7,11.7c0.7,0.4,1.1,1.1,1.1,1.9l0,0C98.7,545.8,96.9,546.8,95.5,546.1z"/>
			<path id="XMLID_525_" fill="none" stroke="#F8C46B" stroke-width="2" stroke-miterlimit="10" d="M101.1,561.1l16.7-9.7
				c0.7-0.4,1.1-1.1,1.1-1.9l0,0c0-1.6-1.7-2.7-3.2-1.9l-16.7,9.7c-0.7,0.4-1.1,1.1-1.1,1.9l0,0C98,560.8,99.7,561.8,101.1,561.1z"
				/>
			<path id="XMLID_524_" fill="none" stroke="#F8C46B" stroke-width="2" stroke-miterlimit="10" d="M101.1,556.1l16.7-9.7
				c0.7-0.4,1.1-1.1,1.1-1.9l0,0c0-1.6-1.7-2.7-3.2-1.9l-16.7,9.7c-0.7,0.4-1.1,1.1-1.1,1.9l0,0C98,555.8,99.7,556.8,101.1,556.1z"
				/>
			<path id="XMLID_523_" fill="none" stroke="#F8C46B" stroke-width="2" stroke-miterlimit="10" d="M101.1,551.1l16.7-9.7
				c0.7-0.4,1.1-1.1,1.1-1.9l0,0c0-1.6-1.7-2.7-3.2-1.9l-16.7,9.7c-0.7,0.4-1.1,1.1-1.1,1.9l0,0C98,550.8,99.7,551.8,101.1,551.1z"
				/>
			<path id="XMLID_522_" fill="none" stroke="#F8C46B" stroke-width="2" stroke-miterlimit="10" d="M101.1,546.1l16.7-9.7
				c0.7-0.4,1.1-1.1,1.1-1.9l0,0c0-1.6-1.7-2.7-3.2-1.9l-16.7,9.7c-0.7,0.4-1.1,1.1-1.1,1.9l0,0C98,545.8,99.7,546.8,101.1,546.1z"
				/>
			<path id="XMLID_521_" fill="#FFFFFF" stroke="#F8C46B" stroke-width="2" stroke-miterlimit="10" d="M71.7,528.3
				c0-0.1,9-15.9,9-15.9l27.8,13.9l-9.9,16L71.7,528.3z"/>
			
				<line id="XMLID_520_" fill="none" stroke="#F8C46B" stroke-width="2" stroke-miterlimit="10" x1="108.5" y1="526.3" x2="119" y2="532.7"/>
			
				<polygon id="XMLID_519_" fill="#FFFFFF" stroke="#F8C46B" stroke-width="2" stroke-linejoin="round" stroke-miterlimit="10" points="
				99.8,518.3 94.5,515.3 94.5,519.3 99.8,521.9 			"/>
			<polygon id="XMLID_518_" fill="#FFFFFF" points="112.5,542.3 107.4,545.3 107.4,559.8 112.5,559.8 			"/>
		</g>
		<path id="XMLID_503_" fill="none" stroke="#A3A2A2" stroke-width="2" stroke-miterlimit="10" d="M95.4,511c-2.1-3,2.4-4.3,0.5-8.4
			"/>
		<path id="XMLID_502_" fill="none" stroke="#A3A2A2" stroke-width="2" stroke-miterlimit="10" d="M99.4,513
			c-2.1-4.7,2.4-6.6,0.5-13.1"/>
		<path id="lake" fill="none" stroke="#04BFDA" stroke-width="2" stroke-miterlimit="10" d="M143.3,586.8
			c-22.1,2.8-34.7-7.2-23.4-8.1s22.8-2.9,18.2-8.8c-4.6-5.9-3.7-10.1,5.4-9.6s-0.4-11.6,11.9-15.6c12.3-4,15.6,4.4,28.5,0.2
			c12.8-4.2,39.1-8.1,45,1c6,9.1,9.2,19.6-14.7,23s-40,5-52.7,11.4S143.3,586.8,143.3,586.8z"/>
	</g>
	<g id="mountain">
		<polyline id="XMLID_515_" fill="#FFFFFF" stroke="#DDDCDC" stroke-width="2" stroke-miterlimit="10" points="547.2,386.7 
			556.1,351.5 666.9,260.2 824.8,214.2 881.8,256.3 		"/>
		<polyline id="XMLID_514_" fill="#FFFFFF" stroke="#DDDCDC" stroke-width="2" stroke-miterlimit="10" points="1137,93.9 
			1027.2,106.1 950.2,131.6 887.9,173.7 857.1,223 837.9,217.1 		"/>
		<polyline id="XMLID_513_" fill="#FFFFFF" stroke="#DDDCDC" stroke-width="2" stroke-miterlimit="10" points="275.2,474.3 
			312.7,417.2 454.2,403.1 551.1,372.1 		"/>
		<polyline id="XMLID_512_" fill="#FFFFFF" stroke="#DDDCDC" stroke-width="2" stroke-miterlimit="10" points="483.3,620.4 
			375.7,496.3 270.4,473.4 256.1,480.3 217.8,548.4 195.1,602.7 103.7,620.4 		"/>
	</g>
	<g id="trees_1_">
		
			<rect id="XMLID_369_" x="683.5" y="256.3" transform="matrix(0.9995 -3.078984e-02 3.078984e-02 0.9995 -7.703 21.2584)" fill="#FFFFFF" stroke="#DDDCDC" stroke-width="2" stroke-linecap="round" stroke-linejoin="round" stroke-miterlimit="10" width="5.9" height="8.8"/>
		
			<polygon id="XMLID_368_" fill="#FFFFFF" stroke="#DDDCDC" stroke-width="2" stroke-linecap="round" stroke-linejoin="round" stroke-miterlimit="10" points="
			698.1,256 674.5,256.7 678.7,247.7 693.4,247.3 		"/>
		
			<polygon id="XMLID_367_" fill="#FFFFFF" stroke="#DDDCDC" stroke-width="2" stroke-linecap="round" stroke-linejoin="round" stroke-miterlimit="10" points="
			696.3,247.2 675.7,247.8 679.9,238.9 691.6,238.5 		"/>
		
			<polygon id="XMLID_362_" fill="#FFFFFF" stroke="#DDDCDC" stroke-width="2" stroke-linecap="round" stroke-linejoin="round" stroke-miterlimit="10" points="
			694.6,238.4 676.9,238.9 685.3,223.2 685.3,223.2 		"/>
		
			<rect id="XMLID_571_" x="837.4" y="304.6" transform="matrix(0.9766 0.2152 -0.2152 0.9766 86.0094 -173.5186)" fill="#FFFFFF" stroke="#DDDCDC" stroke-width="2" stroke-linecap="round" stroke-linejoin="round" stroke-miterlimit="10" width="4.8" height="7.2"/>
		
			<polygon id="XMLID_570_" fill="#FFFFFF" stroke="#DDDCDC" stroke-width="2" stroke-linecap="round" stroke-linejoin="round" stroke-miterlimit="10" points="
			850,306.8 831.2,302.6 836.3,296.4 848,299 		"/>
		
			<polygon id="XMLID_569_" fill="#FFFFFF" stroke="#DDDCDC" stroke-width="2" stroke-linecap="round" stroke-linejoin="round" stroke-miterlimit="10" points="
			850.4,299.5 834,295.9 839,289.6 848.4,291.7 		"/>
		
			<polygon id="XMLID_568_" fill="#FFFFFF" stroke="#DDDCDC" stroke-width="2" stroke-linecap="round" stroke-linejoin="round" stroke-miterlimit="10" points="
			850.7,292.2 836.7,289.1 846.4,278.3 846.4,278.3 		"/>
		
			<rect id="XMLID_224_" x="945" y="424.1" transform="matrix(0.9487 -0.3163 0.3163 0.9487 -86.6995 321.6754)" fill="#FFFFFF" stroke="#DDDCDC" stroke-width="2" stroke-linecap="round" stroke-linejoin="round" stroke-miterlimit="10" width="5" height="7.5"/>
		
			<polygon id="XMLID_223_" fill="#FFFFFF" stroke="#DDDCDC" stroke-width="2" stroke-linecap="round" stroke-linejoin="round" stroke-miterlimit="10" points="
			955.9,421.1 936.8,427.5 938,419.2 949.9,415.2 		"/>
		
			<polygon id="XMLID_222_" fill="#FFFFFF" stroke="#DDDCDC" stroke-width="2" stroke-linecap="round" stroke-linejoin="round" stroke-miterlimit="10" points="
			952.3,414.4 935.6,420 936.8,411.6 946.3,408.4 		"/>
		
			<polygon id="XMLID_221_" fill="#FFFFFF" stroke="#DDDCDC" stroke-width="2" stroke-linecap="round" stroke-linejoin="round" stroke-miterlimit="10" points="
			948.7,407.6 934.4,412.4 937.4,397.5 937.4,397.5 		"/>
		
			<rect id="XMLID_217_" x="1018.3" y="371.6" transform="matrix(0.9781 -0.2081 0.2081 0.9781 -55.7744 220.6682)" fill="#FFFFFF" stroke="#DDDCDC" stroke-width="2" stroke-linecap="round" stroke-linejoin="round" stroke-miterlimit="10" width="5" height="7.5"/>
		
			<polygon id="XMLID_216_" fill="#FFFFFF" stroke="#DDDCDC" stroke-width="2" stroke-linecap="round" stroke-linejoin="round" stroke-miterlimit="10" points="
			1029.9,369.6 1010.2,373.8 1012.3,365.6 1024.6,363 		"/>
		
			<polygon id="XMLID_215_" fill="#FFFFFF" stroke="#DDDCDC" stroke-width="2" stroke-linecap="round" stroke-linejoin="round" stroke-miterlimit="10" points="
			1027.1,362.5 1009.8,366.2 1012,358 1021.8,355.9 		"/>
		
			<polygon id="XMLID_214_" fill="#FFFFFF" stroke="#DDDCDC" stroke-width="2" stroke-linecap="round" stroke-linejoin="round" stroke-miterlimit="10" points="
			1024.3,355.4 1009.5,358.5 1014.1,344 1014.1,344 		"/>
		
			<rect id="XMLID_213_" x="1104.6" y="326.2" transform="matrix(0.9955 9.481676e-02 -9.481676e-02 0.9955 36.2749 -103.4878)" fill="#FFFFFF" stroke="#DDDCDC" stroke-width="2" stroke-linecap="round" stroke-linejoin="round" stroke-miterlimit="10" width="5" height="7.5"/>
		
			<polygon id="XMLID_212_" fill="#FFFFFF" stroke="#DDDCDC" stroke-width="2" stroke-linecap="round" stroke-linejoin="round" stroke-miterlimit="10" points="
			1117.5,327.2 1097.5,325.3 1101.9,318.1 1114.5,319.3 		"/>
		
			<polygon id="XMLID_211_" fill="#FFFFFF" stroke="#DDDCDC" stroke-width="2" stroke-linecap="round" stroke-linejoin="round" stroke-miterlimit="10" points="
			1117,319.5 1099.4,317.9 1103.9,310.7 1113.9,311.7 		"/>
		
			<polygon id="XMLID_210_" fill="#FFFFFF" stroke="#DDDCDC" stroke-width="2" stroke-linecap="round" stroke-linejoin="round" stroke-miterlimit="10" points="
			1116.4,311.9 1101.4,310.5 1110.2,298.1 1110.2,298.1 		"/>
		
			<rect id="XMLID_209_" x="1123.3" y="432.4" transform="matrix(0.9981 -6.208695e-02 6.208695e-02 0.9981 -24.9108 70.7398)" fill="#FFFFFF" stroke="#DDDCDC" stroke-width="2" stroke-linecap="round" stroke-linejoin="round" stroke-miterlimit="10" width="5" height="7.5"/>
		
			<polygon id="XMLID_208_" fill="#FFFFFF" stroke="#DDDCDC" stroke-width="2" stroke-linecap="round" stroke-linejoin="round" stroke-miterlimit="10" points="
			1135.6,431.8 1115.5,433.1 1118.8,425.3 1131.4,424.5 		"/>
		
			<polygon id="XMLID_207_" fill="#FFFFFF" stroke="#DDDCDC" stroke-width="2" stroke-linecap="round" stroke-linejoin="round" stroke-miterlimit="10" points="
			1133.9,424.4 1116.3,425.5 1119.6,417.7 1129.7,417.1 		"/>
		
			<polygon id="XMLID_206_" fill="#FFFFFF" stroke="#DDDCDC" stroke-width="2" stroke-linecap="round" stroke-linejoin="round" stroke-miterlimit="10" points="
			1132.2,416.9 1117.1,417.9 1123.8,404.2 1123.8,404.2 		"/>
		
			<rect id="XMLID_205_" x="1019.5" y="506.4" transform="matrix(0.9981 -6.208695e-02 6.208695e-02 0.9981 -29.7522 64.4732)" fill="#FFFFFF" stroke="#DDDCDC" stroke-width="2" stroke-linecap="round" stroke-linejoin="round" stroke-miterlimit="10" width="6.2" height="9.2"/>
		
			<polygon id="XMLID_204_" fill="#FFFFFF" stroke="#DDDCDC" stroke-width="2" stroke-linecap="round" stroke-linejoin="round" stroke-miterlimit="10" points="
			1034.6,505.6 1010,507.1 1014,497.6 1029.4,496.7 		"/>
		
			<polygon id="XMLID_203_" fill="#FFFFFF" stroke="#DDDCDC" stroke-width="2" stroke-linecap="round" stroke-linejoin="round" stroke-miterlimit="10" points="
			1032.5,496.5 1010.9,497.8 1015,488.3 1027.3,487.6 		"/>
		
			<polygon id="XMLID_202_" fill="#FFFFFF" stroke="#DDDCDC" stroke-width="2" stroke-linecap="round" stroke-linejoin="round" stroke-miterlimit="10" points="
			1030.3,487.4 1011.9,488.5 1020.1,471.8 1020.1,471.8 		"/>
		
			<use xlink:href="#Tree_5_"  width="34" height="59" id="XMLID_539_" x="-17" y="-29.7" transform="matrix(1 0 0 -1 16.9997 560.1222)" overflow="visible"/>
		
			<use xlink:href="#Tree_5_"  width="34" height="59" id="XMLID_538_" x="-17" y="-29.7" transform="matrix(1 0 0 -1 188.0225 501.7762)" overflow="visible"/>
		
			<use xlink:href="#Tree_5_"  width="34" height="59" id="XMLID_537_" x="-17" y="-29.7" transform="matrix(1 0 0 -1 524.9998 609.1718)" overflow="visible"/>
		
			<use xlink:href="#Tree_5_"  width="34" height="59" id="XMLID_536_" x="-17" y="-29.7" transform="matrix(1 0 0 -1 757.5342 607.6674)" overflow="visible"/>
		
			<use xlink:href="#Tree_5_"  width="34" height="59" id="XMLID_535_" x="-17" y="-29.7" transform="matrix(1 0 0 -1 996.5637 625.6514)" overflow="visible"/>
		
			<use xlink:href="#Tree_5_"  width="34" height="59" id="XMLID_533_" x="-17" y="-29.7" transform="matrix(1 0 0 -1 842.9656 530.2558)" overflow="visible"/>
		
			<use xlink:href="#Tree_5_"  width="34" height="59" id="XMLID_532_" x="-17" y="-29.7" transform="matrix(1 0 0 -1 611.7477 519.1505)" overflow="visible"/>
		
			<use xlink:href="#Tree_5_"  width="34" height="59" id="XMLID_530_" x="-17" y="-29.7" transform="matrix(1 0 0 -1 1121.0033 528.1558)" overflow="visible"/>
		
			<use xlink:href="#Tree_5_"  width="34" height="59" id="XMLID_510_" x="-17" y="-29.7" transform="matrix(1 0 0 -1 102.6854 609.1718)" overflow="visible"/>
		
			<use xlink:href="#Tree_5_"  width="34" height="59" id="XMLID_509_" x="-17" y="-29.7" transform="matrix(1 0 0 -1 180.0033 563.131)" overflow="visible"/>
		
			<use xlink:href="#Tree_5_"  width="34" height="59" id="XMLID_501_" x="-17" y="-29.7" transform="matrix(0.998 -6.251543e-02 -6.251543e-02 -0.998 479.1696 386.7402)" overflow="visible"/>
		
			<use xlink:href="#Tree_5_"  width="34" height="59" id="XMLID_500_" x="-17" y="-29.7" transform="matrix(0.9892 -0.1468 -0.1468 -0.9892 518.4633 371.775)" overflow="visible"/>
	</g>
	<g id="campsite">
		<g id="campfire">
			<path id="XMLID_499_" fill="#FFFFFF" stroke="#F8C46B" stroke-width="2" stroke-miterlimit="10" d="M364.3,422.6l-27.2,7.6
				c-0.6,0.2-1.3-0.2-1.4-0.8l-0.5-1.9c-0.2-0.6,0.2-1.3,0.8-1.4l27.2-7.6c0.6-0.2,1.3,0.2,1.4,0.8l0.5,1.9
				C365.3,421.8,364.9,422.4,364.3,422.6z"/>
			<path id="XMLID_498_" fill="#FFFFFF" stroke="#F8C46B" stroke-width="2" stroke-miterlimit="10" d="M363.1,431l-26.6-9.7
				c-0.6-0.2-0.9-0.9-0.7-1.4l0.6-1.7c0.2-0.6,0.9-0.9,1.4-0.7l26.6,9.7c0.6,0.2,0.9,0.9,0.7,1.4l-0.6,1.7
				C364.3,430.9,363.7,431.2,363.1,431z"/>
			
				<path id="XMLID_497_" fill="#FFFFFF" stroke="#D44435" stroke-width="2" stroke-linecap="round" stroke-linejoin="round" stroke-miterlimit="10" d="
				M343.9,416.6c-4-4.9-5.4-9.9-1.5-11.8c0,0,2.1,5.8,4.4,4.4s3.5-16.2,5.8-10.6c0.9,2.5,1.9,8.2,1.3,10.1c-0.7,2,7.4-3.4,5.2-5.9
				c0,0,4.6,6.9,1.7,10.1c-2.9,3.1-4.5,4-4.5,4"/>
		</g>
		<g id="tent">
			<polygon id="XMLID_491_" fill="#FFFFFF" points="378.8,416.3 392.4,385.8 405.1,420.4 			"/>
			
				<path id="XMLID_490_" fill="#FFFFFF" stroke="#04BFDA" stroke-width="2" stroke-linecap="round" stroke-linejoin="round" stroke-miterlimit="10" d="
				M392.4,385.8c0,0,21.1,1,30.9-1l10.9,26.2l-29.1,9.4L392.4,385.8l-13.6,30.5"/>
			
				<line id="XMLID_489_" fill="none" stroke="#04BFDA" stroke-width="2" stroke-miterlimit="10" stroke-dasharray="4" x1="392.5" y1="387.4" x2="390.2" y2="418.4"/>
			
				<line id="XMLID_488_" fill="none" stroke="#93C957" stroke-width="2" stroke-miterlimit="10" x1="378.9" y1="421" x2="376.8" y2="414"/>
			
				<line id="XMLID_487_" fill="none" stroke="#93C957" stroke-width="2" stroke-miterlimit="10" x1="385.1" y1="421" x2="385.7" y2="416.8"/>
			
				<line id="XMLID_486_" fill="none" stroke="#93C957" stroke-width="2" stroke-miterlimit="10" x1="389.9" y1="420.2" x2="389.9" y2="417.5"/>
			
				<line id="XMLID_485_" fill="none" stroke="#93C957" stroke-width="2" stroke-miterlimit="10" x1="396.8" y1="422.6" x2="395.2" y2="418.9"/>
			
				<line id="XMLID_484_" fill="none" stroke="#93C957" stroke-width="2" stroke-miterlimit="10" x1="405.8" y1="421.7" x2="406.1" y2="417.5"/>
			
				<line id="XMLID_483_" fill="none" stroke="#93C957" stroke-width="2" stroke-miterlimit="10" x1="412.7" y1="421" x2="412.9" y2="416.8"/>
			
				<line id="XMLID_482_" fill="none" stroke="#93C957" stroke-width="2" stroke-miterlimit="10" x1="422.3" y1="419.6" x2="420.6" y2="413.7"/>
			
				<line id="XMLID_481_" fill="none" stroke="#93C957" stroke-width="2" stroke-miterlimit="10" x1="428" y1="415.4" x2="428" y2="409.7"/>
			
				<line id="XMLID_479_" fill="none" stroke="#93C957" stroke-width="2" stroke-miterlimit="10" x1="436.4" y1="411.4" x2="436.4" y2="408.6"/>
			
				<line id="XMLID_480_" fill="none" stroke="#93C957" stroke-width="2" stroke-miterlimit="10" x1="431.2" y1="413.2" x2="432.7" y2="409.7"/>
		</g>
	</g>
	<g id="hiker">
		<path id="XMLID_478_" fill="#FFFFFF" stroke="#DDDCDC" stroke-width="2" stroke-miterlimit="10" d="M725.8,229.9l5.4,7l4.8,7.7
			l-3.4,2.4l-4.7-8.5l-3.2-2l-1.1,12.9l-3.7-0.7l1-15.6c0,0-2.4-1.7-1-7.4c1.4-5.7,2.1-7,4.3-6.8c2.1,0.1,3.5,4.4,3.5,4.4l0.9,1
			l6.7,2.4v2l-8.5-1.8L725.8,229.9z"/>
		
			<circle id="XMLID_477_" fill="#FFFFFF" stroke="#DDDCDC" stroke-width="2" stroke-miterlimit="10" cx="725.7" cy="213.4" r="3.4"/>
		<path id="XMLID_476_" fill="#FFFFFF" stroke="#DDDCDC" stroke-width="2" stroke-miterlimit="10" d="M715.1,229.4L715.1,229.4
			c-0.8-0.2-1.3-1-1.1-1.8l1.9-7.9c0.2-0.8,1-1.3,1.8-1.1l0,0c0.8,0.2,1.3,1,1.1,1.8l-1.9,7.9C716.6,229.1,715.8,229.6,715.1,229.4z
			"/>
		
			<line id="XMLID_475_" fill="none" stroke="#F8C46B" stroke-width="2" stroke-miterlimit="10" x1="734" y1="239.3" x2="737" y2="219.6"/>
		
			<path id="XMLID_474_" fill="#FFFFFF" stroke="#93C957" stroke-width="2" stroke-linecap="round" stroke-linejoin="round" stroke-miterlimit="10" d="
			M719.8,213.5c0,0,5.7-0.8,9.8-4.8l-2.9,0.3l-2.7-2.9l-3,1.3l0.4,4.2L719.8,213.5z"/>
	</g>
	<g id="hiker_1_">
		<path id="XMLID_473_" fill="#FFFFFF" stroke="#DDDCDC" stroke-width="2" stroke-miterlimit="10" d="M757.7,221.1l4.8,6.2l4.3,6.9
			l-3,2.2l-4.2-7.6l-2.8-1.8l-1,11.5l-3.3-0.6l0.9-14c0,0-2.2-1.5-0.9-6.6c1.3-5.1,1.9-6.2,3.8-6.1s3.2,3.9,3.2,3.9l0.8,0.9l6,2.2
			v1.8l-7.6-1.7L757.7,221.1z"/>
		
			<circle id="XMLID_472_" fill="#FFFFFF" stroke="#DDDCDC" stroke-width="2" stroke-miterlimit="10" cx="757.5" cy="206.3" r="3.1"/>
		<path id="XMLID_471_" fill="#FFFFFF" stroke="#DDDCDC" stroke-width="2" stroke-miterlimit="10" d="M748,220.6L748,220.6
			c-0.7-0.2-1.1-0.9-1-1.6l1.7-7.1c0.2-0.7,0.9-1.1,1.6-1v0c0.7,0.2,1.1,0.9,1,1.6l-1.7,7.1C749.4,220.3,748.7,220.8,748,220.6z"/>
		
			<line id="XMLID_470_" fill="none" stroke="#F8C46B" stroke-width="2" stroke-miterlimit="10" x1="765" y1="229.4" x2="767.7" y2="211.8"/>
		
			<path id="XMLID_469_" fill="#FFFFFF" stroke="#93C957" stroke-width="2" stroke-linecap="round" stroke-linejoin="round" stroke-miterlimit="10" d="
			M752.3,206.4c0,0,5.1-0.7,8.8-4.3l-2.6,0.3l-2.4-2.6l-2.7,1.1l0.4,3.7L752.3,206.4z"/>
		<g id="XMLID_428_">
			<path id="XMLID_467_" fill="#DDDCDC" d="M771.2,206.8l-0.3,2l-1.2-0.2l0.3-2l-1.5-3.4l1.1,0.1c0.1,0,0.2,0,0.2,0.1
				c0.1,0.1,0.1,0.1,0.1,0.2l0.5,1.6c0,0.1,0.1,0.2,0.1,0.4c0,0.1,0.1,0.2,0.1,0.3c0-0.1,0.1-0.2,0.2-0.3c0.1-0.1,0.1-0.2,0.2-0.3
				l0.9-1.4c0,0,0-0.1,0.1-0.1c0,0,0.1-0.1,0.1-0.1c0,0,0.1,0,0.1,0c0,0,0.1,0,0.1,0l1.1,0.1L771.2,206.8z"/>
			<path id="XMLID_464_" fill="#DDDCDC" d="M774.6,205c0.3,0,0.5,0,0.8,0.1c0.2,0.1,0.4,0.2,0.6,0.3c0.2,0.1,0.3,0.3,0.4,0.6
				c0.1,0.2,0.2,0.5,0.2,0.8c0,0.3,0,0.6-0.1,0.8c-0.1,0.2-0.2,0.5-0.3,0.6c-0.2,0.2-0.3,0.3-0.6,0.4c-0.2,0.1-0.5,0.2-0.8,0.2
				c-0.3,0-0.5,0-0.8-0.1s-0.4-0.2-0.6-0.3c-0.2-0.2-0.3-0.3-0.4-0.6c-0.1-0.2-0.2-0.5-0.2-0.8c0-0.3,0-0.6,0.1-0.8
				c0.1-0.2,0.2-0.4,0.3-0.6c0.2-0.2,0.3-0.3,0.6-0.4C774,205.1,774.3,205.1,774.6,205z M774.8,208c0.3,0,0.4-0.1,0.5-0.3
				c0.1-0.2,0.1-0.5,0.1-0.8c0-0.4-0.1-0.6-0.2-0.8c-0.1-0.2-0.3-0.2-0.6-0.2c-0.3,0-0.4,0.1-0.5,0.3c-0.1,0.2-0.1,0.5-0.1,0.8
				c0,0.4,0.1,0.6,0.2,0.8C774.4,208,774.5,208,774.8,208z"/>
			<path id="XMLID_461_" fill="#DDDCDC" d="M780.4,207.7c-0.1,0-0.1,0-0.2,0s-0.1-0.1-0.1-0.1l-0.2-0.3c-0.1,0.1-0.1,0.2-0.2,0.3
				c-0.1,0.1-0.1,0.2-0.2,0.2c-0.1,0.1-0.2,0.1-0.3,0.2c-0.1,0.1-0.2,0.1-0.3,0.1c-0.2,0-0.4,0.1-0.5,0c-0.2,0-0.3-0.1-0.5-0.3
				c-0.2-0.1-0.3-0.3-0.4-0.5c-0.1-0.2-0.2-0.5-0.3-0.7c-0.1-0.3-0.1-0.5-0.1-0.8c0-0.2,0.1-0.5,0.2-0.7s0.2-0.4,0.4-0.5
				c0.2-0.1,0.4-0.2,0.6-0.3c0.2,0,0.3-0.1,0.5,0c0.1,0,0.3,0.1,0.4,0.1l-0.5-1.8l1.1-0.3l1.3,5.2L780.4,207.7z M779.1,207.3
				c0.1,0,0.1,0,0.2-0.1c0.1,0,0.1-0.1,0.2-0.1c0,0,0.1-0.1,0.1-0.1c0-0.1,0.1-0.1,0.1-0.2l-0.4-1.5c-0.1-0.1-0.2-0.1-0.3-0.1
				c-0.1,0-0.2,0-0.3,0c-0.1,0-0.2,0.1-0.3,0.1c-0.1,0.1-0.1,0.1-0.2,0.2c0,0.1-0.1,0.2-0.1,0.4c0,0.1,0,0.3,0.1,0.5
				c0,0.2,0.1,0.3,0.2,0.5c0.1,0.1,0.1,0.2,0.2,0.3c0.1,0.1,0.1,0.1,0.2,0.1C778.9,207.3,779,207.3,779.1,207.3z"/>
			<path id="XMLID_458_" fill="#DDDCDC" d="M782.3,203.1c0.2-0.1,0.5-0.1,0.7-0.1c0.2,0,0.4,0,0.6,0.1c0.2,0.1,0.4,0.2,0.5,0.4
				c0.2,0.2,0.3,0.4,0.4,0.6c0,0.1,0.1,0.1,0.1,0.2c0,0.1,0,0.1,0,0.1c0,0,0,0.1,0,0.1c0,0-0.1,0-0.1,0.1l-2,0.8
				c0.1,0.3,0.3,0.5,0.5,0.5c0.2,0.1,0.4,0.1,0.6,0c0.1,0,0.2-0.1,0.3-0.2c0.1-0.1,0.1-0.1,0.2-0.2c0.1-0.1,0.1-0.1,0.1-0.2
				c0-0.1,0.1-0.1,0.2-0.1c0.1,0,0.2,0,0.2,0l0.4,0.3c-0.1,0.2-0.1,0.3-0.2,0.4c-0.1,0.1-0.2,0.2-0.3,0.3c-0.1,0.1-0.2,0.2-0.4,0.2
				s-0.2,0.1-0.4,0.2c-0.2,0.1-0.5,0.1-0.7,0.1c-0.2,0-0.5,0-0.7-0.1c-0.2-0.1-0.4-0.2-0.6-0.4c-0.2-0.2-0.3-0.4-0.4-0.8
				c-0.1-0.2-0.1-0.5-0.1-0.7c0-0.2,0-0.5,0.1-0.7s0.2-0.4,0.4-0.6C781.9,203.4,782.1,203.2,782.3,203.1z M782.6,203.8
				c-0.2,0.1-0.3,0.2-0.4,0.3c-0.1,0.2-0.1,0.3,0,0.6l1.3-0.5c0-0.1-0.1-0.2-0.1-0.2s-0.1-0.1-0.2-0.2c-0.1,0-0.2-0.1-0.2-0.1
				C782.8,203.8,782.7,203.8,782.6,203.8z"/>
			<path id="XMLID_456_" fill="#DDDCDC" d="M784.8,200.4l2.2,4.9l-1,0.5l-2.2-4.9L784.8,200.4z"/>
			<path id="XMLID_454_" fill="#DDDCDC" d="M787.8,198.9l2.4,4.8l-1,0.5l-2.4-4.8L787.8,198.9z"/>
			<path id="XMLID_451_" fill="#DDDCDC" d="M790.6,199.2c0.2-0.1,0.4-0.2,0.6-0.2c0.2,0,0.4,0,0.6,0c0.2,0.1,0.4,0.2,0.5,0.3
				s0.3,0.3,0.4,0.6c0,0.1,0.1,0.1,0.1,0.2c0,0,0,0.1,0,0.1c0,0,0,0.1,0,0.1c0,0-0.1,0-0.1,0.1l-1.9,1c0.2,0.3,0.4,0.4,0.6,0.5
				c0.2,0.1,0.4,0,0.6-0.1c0.1-0.1,0.2-0.1,0.3-0.2c0.1-0.1,0.1-0.1,0.2-0.2c0-0.1,0.1-0.1,0.1-0.2c0-0.1,0.1-0.1,0.1-0.1
				c0.1,0,0.2,0,0.2,0l0.5,0.2c0,0.2-0.1,0.3-0.2,0.5c-0.1,0.1-0.2,0.3-0.3,0.4c-0.1,0.1-0.2,0.2-0.3,0.3c-0.1,0.1-0.2,0.2-0.3,0.2
				c-0.2,0.1-0.5,0.2-0.7,0.2c-0.2,0-0.5,0-0.7-0.1c-0.2-0.1-0.4-0.2-0.6-0.4c-0.2-0.2-0.4-0.4-0.5-0.7c-0.1-0.2-0.2-0.4-0.2-0.7
				c0-0.2,0-0.5,0.1-0.7c0.1-0.2,0.2-0.4,0.3-0.6C790.2,199.5,790.4,199.3,790.6,199.2z M791,199.9c-0.2,0.1-0.3,0.2-0.4,0.4
				c0,0.2,0,0.4,0,0.6l1.2-0.6c0-0.1-0.1-0.1-0.1-0.2c-0.1-0.1-0.1-0.1-0.2-0.1c-0.1,0-0.2,0-0.3,0
				C791.2,199.8,791.1,199.8,791,199.9z"/>
			<path id="XMLID_449_" fill="#DDDCDC" d="M795.6,200.8l-2.5-4.7l1-0.5l0.9,1.7c0.1-0.2,0.1-0.3,0.3-0.4c0.1-0.1,0.3-0.3,0.4-0.4
				c0.2-0.1,0.4-0.1,0.5-0.2c0.2,0,0.3,0,0.5,0.1c0.2,0.1,0.3,0.2,0.4,0.3s0.2,0.3,0.3,0.5l1.1,2.1l-1,0.5l-1.1-2.1
				c-0.1-0.2-0.2-0.3-0.3-0.3c-0.1,0-0.3,0-0.4,0c-0.1,0.1-0.2,0.1-0.3,0.2c-0.1,0.1-0.1,0.2-0.2,0.3l1.2,2.3L795.6,200.8z"/>
			<path id="XMLID_446_" fill="#DDDCDC" d="M798.9,194.8c0.2-0.1,0.4-0.2,0.6-0.2c0.2,0,0.4,0,0.6,0.1c0.2,0.1,0.4,0.2,0.5,0.3
				c0.2,0.1,0.3,0.3,0.4,0.6c0,0.1,0.1,0.1,0.1,0.2c0,0.1,0,0.1,0,0.1c0,0,0,0.1,0,0.1c0,0-0.1,0-0.1,0.1l-1.9,1
				c0.2,0.3,0.4,0.4,0.6,0.5c0.2,0.1,0.4,0,0.6-0.1c0.1-0.1,0.2-0.1,0.3-0.2c0.1-0.1,0.1-0.1,0.2-0.2c0-0.1,0.1-0.1,0.1-0.2
				c0-0.1,0.1-0.1,0.1-0.1c0.1,0,0.2,0,0.2,0l0.5,0.2c0,0.2-0.1,0.3-0.2,0.5c-0.1,0.1-0.2,0.3-0.3,0.4c-0.1,0.1-0.2,0.2-0.3,0.3
				c-0.1,0.1-0.2,0.1-0.3,0.2c-0.2,0.1-0.5,0.2-0.7,0.2c-0.2,0-0.5,0-0.7-0.1c-0.2-0.1-0.4-0.2-0.6-0.4c-0.2-0.2-0.4-0.4-0.5-0.7
				c-0.1-0.2-0.2-0.4-0.2-0.7c0-0.2,0-0.5,0.1-0.7c0.1-0.2,0.2-0.4,0.3-0.6S798.6,195,798.9,194.8z M799.3,195.5
				c-0.2,0.1-0.3,0.2-0.4,0.4c-0.1,0.2,0,0.3,0,0.6l1.2-0.6c0-0.1-0.1-0.1-0.1-0.2c-0.1-0.1-0.1-0.1-0.2-0.1c-0.1,0-0.2-0.1-0.3,0
				S799.4,195.4,799.3,195.5z"/>
			<path id="XMLID_444_" fill="#DDDCDC" d="M803.8,196.6l-2.2-4.9l1-0.4l0.8,1.8c0.1-0.2,0.2-0.3,0.3-0.4c0.1-0.1,0.3-0.2,0.5-0.3
				c0.2-0.1,0.4-0.1,0.5-0.1c0.2,0,0.3,0,0.5,0.1c0.1,0.1,0.3,0.2,0.4,0.3c0.1,0.1,0.2,0.3,0.3,0.5l0.9,2.1l-1,0.4l-0.9-2.1
				c-0.1-0.2-0.2-0.3-0.3-0.3c-0.1-0.1-0.2-0.1-0.4,0c-0.1,0-0.2,0.1-0.3,0.2c-0.1,0.1-0.1,0.2-0.2,0.3l1.1,2.4L803.8,196.6z"/>
			<path id="XMLID_441_" fill="#DDDCDC" d="M807.8,190.9c0.3-0.1,0.5-0.1,0.8-0.1c0.2,0,0.5,0.1,0.7,0.2c0.2,0.1,0.4,0.2,0.6,0.4
				c0.2,0.2,0.3,0.4,0.4,0.7c0.1,0.3,0.1,0.5,0.1,0.8c0,0.3-0.1,0.5-0.2,0.7c-0.1,0.2-0.2,0.4-0.4,0.6c-0.2,0.2-0.4,0.3-0.7,0.4
				c-0.3,0.1-0.5,0.1-0.8,0.1c-0.2,0-0.5-0.1-0.7-0.2c-0.2-0.1-0.4-0.2-0.6-0.4c-0.2-0.2-0.3-0.4-0.4-0.7c-0.1-0.3-0.1-0.5-0.1-0.8
				c0-0.3,0.1-0.5,0.2-0.7c0.1-0.2,0.2-0.4,0.4-0.6C807.3,191.1,807.5,191,807.8,190.9z M808.8,193.7c0.2-0.1,0.4-0.2,0.4-0.4
				c0.1-0.2,0-0.5-0.1-0.8c-0.1-0.3-0.3-0.6-0.4-0.7c-0.2-0.1-0.4-0.1-0.6-0.1c-0.2,0.1-0.4,0.2-0.4,0.4c-0.1,0.2,0,0.5,0.1,0.8
				c0.1,0.3,0.3,0.6,0.5,0.7C808.3,193.7,808.6,193.8,808.8,193.7z"/>
			<path id="XMLID_438_" fill="#DDDCDC" d="M811.9,189.5c0.3-0.1,0.5-0.1,0.8-0.1c0.2,0,0.5,0.1,0.7,0.2c0.2,0.1,0.4,0.3,0.5,0.5
				c0.1,0.2,0.3,0.4,0.3,0.7c0.1,0.3,0.1,0.6,0.1,0.8c0,0.3-0.1,0.5-0.2,0.7c-0.1,0.2-0.3,0.4-0.5,0.5c-0.2,0.1-0.4,0.3-0.7,0.3
				c-0.3,0.1-0.5,0.1-0.8,0.1c-0.2,0-0.5-0.1-0.7-0.2c-0.2-0.1-0.4-0.3-0.5-0.5c-0.2-0.2-0.3-0.4-0.3-0.7c-0.1-0.3-0.1-0.5-0.1-0.8
				c0-0.2,0.1-0.5,0.2-0.7c0.1-0.2,0.3-0.4,0.5-0.5C811.4,189.7,811.7,189.6,811.9,189.5z M812.7,192.4c0.2-0.1,0.4-0.2,0.5-0.4
				c0.1-0.2,0.1-0.5,0-0.8c-0.1-0.4-0.2-0.6-0.4-0.7c-0.2-0.1-0.4-0.2-0.6-0.1c-0.3,0.1-0.4,0.2-0.5,0.4c-0.1,0.2-0.1,0.5,0,0.8
				c0.1,0.4,0.2,0.6,0.4,0.7C812.2,192.5,812.5,192.5,812.7,192.4z"/>
			<path id="XMLID_435_" fill="#DDDCDC" d="M815.7,187.2l0.4,2c0,0.2,0.1,0.4,0.1,0.6c0,0.2,0,0.4,0,0.7l-0.7,0.1
				c-0.1-0.2-0.2-0.4-0.2-0.6c-0.1-0.2-0.1-0.4-0.2-0.6l-0.4-2L815.7,187.2z M815.4,192c0-0.1,0-0.2,0-0.2c0-0.1,0.1-0.1,0.1-0.2
				c0-0.1,0.1-0.1,0.2-0.2c0.1,0,0.1-0.1,0.2-0.1c0.1,0,0.2,0,0.2,0c0.1,0,0.2,0,0.2,0.1c0.1,0,0.1,0.1,0.2,0.2s0.1,0.1,0.1,0.2
				c0,0.1,0,0.2,0,0.2c0,0.1-0.1,0.2-0.1,0.2c0,0.1-0.1,0.1-0.2,0.2c-0.1,0-0.1,0.1-0.2,0.1c-0.1,0-0.2,0-0.3,0
				c-0.1,0-0.2,0-0.2-0.1c-0.1,0-0.1-0.1-0.2-0.2C815.4,192.2,815.4,192.1,815.4,192z"/>
			<path id="XMLID_432_" fill="#DDDCDC" d="M818.6,186.9l0.2,2c0,0.2,0,0.4,0,0.6c0,0.2,0,0.4,0,0.7l-0.7,0.1
				c-0.1-0.2-0.1-0.4-0.2-0.6c0-0.2-0.1-0.4-0.1-0.6l-0.2-2L818.6,186.9z M818,191.6c0-0.1,0-0.2,0-0.2c0-0.1,0.1-0.1,0.1-0.2
				c0-0.1,0.1-0.1,0.2-0.1c0.1,0,0.2-0.1,0.2-0.1c0.1,0,0.2,0,0.2,0c0.1,0,0.1,0.1,0.2,0.1c0.1,0,0.1,0.1,0.2,0.2
				c0,0.1,0.1,0.1,0.1,0.2c0,0.1,0,0.2,0,0.2c0,0.1-0.1,0.1-0.1,0.2c-0.1,0.1-0.1,0.1-0.2,0.1c-0.1,0-0.2,0.1-0.2,0.1
				c-0.1,0-0.2,0-0.3,0c-0.1,0-0.1-0.1-0.2-0.1c-0.1,0-0.1-0.1-0.2-0.2C818,191.7,818,191.7,818,191.6z"/>
			<path id="XMLID_429_" fill="#DDDCDC" d="M821.7,186.7l0,2c0,0.2,0,0.4,0,0.6c0,0.2-0.1,0.4-0.1,0.7l-0.7,0c0-0.2-0.1-0.4-0.1-0.7
				c0-0.2,0-0.4-0.1-0.6l0-2L821.7,186.7z M820.6,191.4c0-0.1,0-0.2,0-0.2c0-0.1,0.1-0.1,0.1-0.2c0.1-0.1,0.1-0.1,0.2-0.1
				c0.1,0,0.2-0.1,0.2-0.1c0.1,0,0.2,0,0.2,0c0.1,0,0.1,0.1,0.2,0.1c0.1,0.1,0.1,0.1,0.1,0.2c0,0.1,0,0.2,0.1,0.2c0,0.1,0,0.2,0,0.2
				c0,0.1-0.1,0.1-0.1,0.2c-0.1,0.1-0.1,0.1-0.2,0.1s-0.2,0-0.2,0.1c-0.1,0-0.2,0-0.2,0c-0.1,0-0.1-0.1-0.2-0.1
				c-0.1-0.1-0.1-0.1-0.1-0.2C820.6,191.5,820.6,191.5,820.6,191.4z"/>
		</g>
	</g>
	<g id="yetiden">
		
			<line id="XMLID_427_" fill="#FFFFFF" stroke="#DDDCDC" stroke-width="2" stroke-miterlimit="10" x1="746" y1="313" x2="797.1" y2="380"/>
		
			<line id="XMLID_426_" fill="#FFFFFF" stroke="#DDDCDC" stroke-width="2" stroke-miterlimit="10" x1="746" y1="313" x2="716" y2="342"/>
		
			<line id="XMLID_425_" fill="none" stroke="#DDDCDC" stroke-width="2" stroke-miterlimit="10" x1="769.6" y1="343.9" x2="788.8" y2="319.8"/>
		
			<line id="XMLID_418_" fill="none" stroke="#DDDCDC" stroke-width="2" stroke-miterlimit="10" x1="870" y1="318.3" x2="890.8" y2="348.5"/>
		<path id="XMLID_417_" fill="none" stroke="#DDDCDC" stroke-width="2" stroke-miterlimit="10" d="M806.1,354.3
			c0-10.9,13.9-24.8,24.8-24.8c10.9,0,28.8,13.9,28.8,24.8"/>
		
			<line id="XMLID_416_" fill="none" stroke="#DDDCDC" stroke-width="2" stroke-miterlimit="10" x1="800.6" y1="354.3" x2="809.9" y2="353.3"/>
		
			<line id="XMLID_415_" fill="none" stroke="#DDDCDC" stroke-width="2" stroke-miterlimit="10" x1="809.9" y1="353.3" x2="814.2" y2="358.8"/>
		
			<line id="XMLID_414_" fill="none" stroke="#DDDCDC" stroke-width="2" stroke-miterlimit="10" x1="814.2" y1="358.8" x2="818.6" y2="357.1"/>
		
			<line id="XMLID_413_" fill="none" stroke="#DDDCDC" stroke-width="2" stroke-miterlimit="10" x1="852.3" y1="359.4" x2="857.5" y2="354.3"/>
		
			<line id="XMLID_412_" fill="none" stroke="#DDDCDC" stroke-width="2" stroke-miterlimit="10" x1="857.5" y1="354.3" x2="865" y2="354.3"/>
		<path id="XMLID_411_" fill="none" stroke="#F8C46B" stroke-width="2" stroke-miterlimit="10" d="M822.1,344.4
			c-0.8-2.2,5.8-0.4,7,1.8C829.1,346.3,823.7,348.8,822.1,344.4z"/>
		<path id="XMLID_410_" fill="none" stroke="#F8C46B" stroke-width="2" stroke-miterlimit="10" d="M841.9,344.4
			c0.8-2.2-5.8-0.4-7,1.8C834.9,346.3,840.2,348.8,841.9,344.4z"/>
		
			<line id="XMLID_421_" fill="none" stroke="#DDDCDC" stroke-width="2" stroke-miterlimit="10" x1="849.4" y1="318.3" x2="856.8" y2="311.6"/>
		
			<line id="XMLID_420_" fill="none" stroke="#DDDCDC" stroke-width="2" stroke-miterlimit="10" x1="856.8" y1="311.6" x2="861.9" y2="320.8"/>
		
			<line id="XMLID_419_" fill="none" stroke="#DDDCDC" stroke-width="2" stroke-miterlimit="10" x1="861.9" y1="320.8" x2="870" y2="318.3"/>
		
			<line id="XMLID_424_" fill="none" stroke="#DDDCDC" stroke-width="2" stroke-miterlimit="10" x1="788.8" y1="319.8" x2="802.1" y2="329.8"/>
		
			<line id="XMLID_423_" fill="none" stroke="#DDDCDC" stroke-width="2" stroke-miterlimit="10" x1="802.1" y1="329.8" x2="823" y2="304.9"/>
		
			<line id="XMLID_422_" fill="none" stroke="#DDDCDC" stroke-width="2" stroke-miterlimit="10" x1="823" y1="304.9" x2="849.4" y2="318.3"/>
	</g>
	<g id="cracks">
		<path id="XMLID_334_" fill="none" stroke="#E8E8E8" stroke-width="2" stroke-miterlimit="10" d="M683.9,463.5
			c0,0,9.3-3.7,11.8,1.6s13.3,5.6,15.4,0.6c2.1-5,8.6-9.1,14.2-6.7c5.6,2.4,7.2-3.8,7.2-3.8"/>
		<path id="XMLID_361_" fill="none" stroke="#E8E8E8" stroke-width="2" stroke-miterlimit="10" d="M1064.2,233.7
			c8.4-1.9,22-3.3,22.9,4.6c0.9,7.9,22.2,4.1,23.6-1c1.4-5.2,13.8-13.8,24.1-8.1"/>
		
			<line id="XMLID_400_" fill="none" stroke="#E8E8E8" stroke-width="2" stroke-miterlimit="10" x1="1119.2" y1="210.9" x2="1002.1" y2="259.4"/>
		
			<line id="XMLID_399_" fill="none" stroke="#E8E8E8" stroke-width="2" stroke-miterlimit="10" x1="1002.1" y1="259.4" x2="991.1" y2="294.6"/>
		
			<line id="XMLID_398_" fill="none" stroke="#E8E8E8" stroke-width="2" stroke-miterlimit="10" x1="957.2" y1="428.9" x2="1057" y2="352.1"/>
		
			<line id="XMLID_397_" fill="none" stroke="#E8E8E8" stroke-width="2" stroke-miterlimit="10" x1="1057" y1="352.1" x2="1106.5" y2="333"/>
		
			<line id="XMLID_396_" fill="none" stroke="#E8E8E8" stroke-width="2" stroke-miterlimit="10" x1="1106.5" y1="333" x2="1147" y2="342.5"/>
		
			<line id="XMLID_395_" fill="none" stroke="#E8E8E8" stroke-width="2" stroke-miterlimit="10" x1="638" y1="513.6" x2="704.4" y2="441.1"/>
		
			<line id="XMLID_394_" fill="none" stroke="#E8E8E8" stroke-width="2" stroke-miterlimit="10" x1="704.4" y1="441.1" x2="740.1" y2="458.9"/>
		
			<line id="XMLID_393_" fill="none" stroke="#E8E8E8" stroke-width="2" stroke-miterlimit="10" x1="740.1" y1="458.9" x2="781" y2="408.4"/>
		
			<line id="XMLID_391_" fill="none" stroke="#E8E8E8" stroke-width="2" stroke-miterlimit="10" x1="957.2" y1="428.9" x2="879" y2="454"/>
	</g>
	<g id="posts">
		<g id="summit1">
			
				<use xlink:href="#sign"  width="31.7" height="24.9" id="XMLID_508_" x="-15.8" y="-11.9" transform="matrix(0.9884 -0.1517 -0.1517 -0.9884 71.9997 562.3892)" overflow="visible"/>
			
				<line id="XMLID_507_" fill="none" stroke="#93C957" stroke-width="2" stroke-miterlimit="10" x1="76.6" y1="575.2" x2="77.9" y2="571.2"/>
			
				<line id="XMLID_506_" fill="none" stroke="#93C957" stroke-width="2" stroke-miterlimit="10" x1="69.1" y1="575.2" x2="66.3" y2="571.9"/>
			
				<line id="XMLID_505_" fill="none" stroke="#93C957" stroke-width="2" stroke-miterlimit="10" x1="81.3" y1="574" x2="83.8" y2="569.8"/>
			
				<line id="XMLID_504_" fill="none" stroke="#93C957" stroke-width="2" stroke-miterlimit="10" x1="63.2" y1="576" x2="62.3" y2="572.4"/>
		</g>
		<g id="summit2">
			
				<use xlink:href="#sign"  width="31.7" height="24.9" id="XMLID_496_" x="-15.8" y="-11.9" transform="matrix(0.9984 5.592357e-02 5.592357e-02 -0.9984 446.1685 440.3642)" overflow="visible"/>
			
				<line id="XMLID_494_" fill="none" stroke="#93C957" stroke-width="2" stroke-miterlimit="10" x1="443.1" y1="453.5" x2="445.5" y2="449.1"/>
			
				<line id="XMLID_493_" fill="none" stroke="#93C957" stroke-width="2" stroke-miterlimit="10" x1="448.5" y1="454" x2="447.8" y2="450.8"/>
			
				<line id="XMLID_495_" fill="none" stroke="#93C957" stroke-width="2" stroke-miterlimit="10" x1="437.9" y1="452.4" x2="437.4" y2="451.2"/>
			
				<line id="XMLID_492_" fill="none" stroke="#93C957" stroke-width="2" stroke-miterlimit="10" x1="451.3" y1="454" x2="453.2" y2="451.2"/>
		</g>
		<g id="summit3">
			
				<use xlink:href="#sign"  width="31.7" height="24.9" id="XMLID_390_" x="-15.8" y="-11.9" transform="matrix(0.9984 5.592357e-02 5.592357e-02 -0.9984 821.6269 218.7032)" overflow="visible"/>
			
				<line id="XMLID_389_" fill="none" stroke="#93C957" stroke-width="2" stroke-miterlimit="10" x1="813.4" y1="230.7" x2="812.9" y2="229.5"/>
			
				<line id="XMLID_388_" fill="none" stroke="#93C957" stroke-width="2" stroke-miterlimit="10" x1="818.6" y1="231.8" x2="821" y2="227.4"/>
			
				<line id="XMLID_387_" fill="none" stroke="#93C957" stroke-width="2" stroke-miterlimit="10" x1="823.9" y1="232.3" x2="823.3" y2="229.2"/>
			
				<line id="XMLID_386_" fill="none" stroke="#93C957" stroke-width="2" stroke-miterlimit="10" x1="826.7" y1="232.3" x2="828.7" y2="229.5"/>
		</g>
		<g id="summit4">
			
				<use xlink:href="#sign"  width="31.7" height="24.9" id="XMLID_385_" x="-15.8" y="-11.9" transform="matrix(0.9706 -0.2405 -0.2405 -0.9706 981.8465 124.3507)" overflow="visible"/>
			
				<line id="XMLID_384_" fill="none" stroke="#93C957" stroke-width="2" stroke-miterlimit="10" x1="977.5" y1="138.3" x2="976.6" y2="137.2"/>
			
				<line id="XMLID_383_" fill="none" stroke="#93C957" stroke-width="2" stroke-miterlimit="10" x1="982.8" y1="137.8" x2="983.8" y2="132.8"/>
			
				<line id="XMLID_382_" fill="none" stroke="#93C957" stroke-width="2" stroke-miterlimit="10" x1="988.1" y1="136.7" x2="986.5" y2="133.9"/>
			
				<line id="XMLID_381_" fill="none" stroke="#93C957" stroke-width="2" stroke-miterlimit="10" x1="990.7" y1="135.9" x2="991.8" y2="132.6"/>
		</g>
	</g>
	<g id="observatory">
		
			<line id="XMLID_409_" fill="#FFFFFF" stroke="#DDDCDC" stroke-width="2" stroke-miterlimit="10" x1="1012" y1="133" x2="1111" y2="133"/>
		<g id="building">
			<path id="XMLID_408_" fill="#FFFFFF" stroke="#F8C46B" stroke-width="2" stroke-miterlimit="10" d="M1027.2,131.9V98.3
				c0-19.1,15.5-34.6,34.6-34.6l0,0c19.1,0,34.6,15.5,34.6,34.6v33.6"/>
			<path id="XMLID_407_" fill="#FFFFFF" stroke="#F8C46B" stroke-width="2" stroke-miterlimit="10" d="M1094.9,103.3H1029
				c-3.6,0-6.6-3-6.6-6.6v0c0-3.6,3-6.6,6.6-6.6h65.9c3.6,0,6.6,3,6.6,6.6v0C1101.5,100.3,1098.5,103.3,1094.9,103.3z"/>
			<path id="XMLID_406_" fill="#FFFFFF" stroke="#F8C46B" stroke-width="2" stroke-miterlimit="10" d="M1061.8,63.7
				c0,0-22.7,7-22.7,26.4"/>
			<path id="XMLID_405_" fill="#FFFFFF" stroke="#F8C46B" stroke-width="2" stroke-miterlimit="10" d="M1061.8,63.7
				c0,0,22.7,7,22.7,26.4"/>
			
				<line id="XMLID_404_" fill="#FFFFFF" stroke="#F8C46B" stroke-width="2" stroke-miterlimit="10" x1="1061.8" y1="63.7" x2="1061.8" y2="90.1"/>
			<polygon id="XMLID_403_" fill="#FFFFFF" stroke="#F8C46B" stroke-width="2" stroke-miterlimit="10" points="1035.1,76.1 
				1021.3,64.2 1025.3,60.2 1039.1,71.9 			"/>
			<path id="XMLID_402_" fill="#FFFFFF" stroke="#F8C46B" stroke-width="2" stroke-miterlimit="10" d="M1022.7,68.2l6.3-7.2
				l-5.3-4.6c-0.6-0.5-1.4-0.4-1.9,0.1l-4.7,5.2c-0.5,0.6-0.4,1.5,0.2,2L1022.7,68.2z"/>
			<path id="XMLID_401_" fill="#FFFFFF" stroke="#F8C46B" stroke-width="2" stroke-miterlimit="10" d="M1068,131.9v-10.2
				c0-3-2.4-5.4-5.4-5.4l0,0c-3,0-5.4,2.4-5.4,5.4v10.2"/>
		</g>
		<g id="stars">
			<circle id="XMLID_380_" fill="#00B8C4" cx="941.8" cy="40.4" r="1.7"/>
			<circle id="XMLID_379_" fill="#00B8C4" cx="999.8" cy="82.4" r="1.7"/>
			<circle id="XMLID_366_" fill="#00B8C4" cx="913.2" cy="65.4" r="1.7"/>
			<circle id="XMLID_365_" fill="#00B8C4" cx="1073.2" cy="27.2" r="1.7"/>
			<circle id="XMLID_364_" fill="#00B8C4" cx="1021.3" cy="15" r="1.7"/>
			<circle id="XMLID_363_" fill="#00B8C4" cx="1111" cy="1.7" r="1.7"/>
			<circle id="XMLID_324_" fill="none" stroke="#00B8C4" stroke-width="2" stroke-miterlimit="10" cx="970.6" cy="22.8" r="9.5"/>
			<circle id="XMLID_277_" fill="none" stroke="#00B8C4" stroke-width="2" stroke-miterlimit="10" cx="966.3" cy="23.9" r="2"/>
			<circle id="XMLID_274_" fill="none" stroke="#00B8C4" stroke-width="2" stroke-miterlimit="10" cx="970.6" cy="18" r="1.4"/>
			<circle id="XMLID_199_" fill="none" stroke="#00B8C4" stroke-width="2" stroke-miterlimit="10" cx="974.5" cy="25.5" r="2.2"/>
		</g>
	</g>
	<path id="XMLID_87_" fill="none" stroke="#EEE7DE" stroke-width="2" stroke-miterlimit="10" stroke-dasharray="2" d="M59.1,591.9
		c-65.1,33.1,1.9,96,157.9,31c0,0,29.3-120.1,90.1-141.5c0,0,71.3-0.3,106-15.4"/>
	<path id="XMLID_88_" fill="none" stroke="#EEE7DE" stroke-width="2" stroke-miterlimit="10" stroke-dasharray="2" d="M484.2,451.8
		c0,0,70.8-13.4,93.8-36.1c0,0,44.1-149.1,215.5-172.9"/>
	<path id="XMLID_98_" fill="none" stroke="#EEE7DE" stroke-width="2" stroke-miterlimit="10" stroke-dasharray="2" d="M840.8,249.4
		c0,0,84.2,58.3,49.2-19.6c0,0,16.4-50.8,64.2-71.3"/>
	
		<ellipse id="XMLID_1_" fill="#FFFFFF" stroke="#EDE6DD" stroke-width="2" stroke-miterlimit="10" cx="62" cy="591.5" rx="5.8" ry="4.1"/>
	
		<ellipse id="XMLID_100_" fill="#FFFFFF" stroke="#EDE6DD" stroke-width="2" stroke-miterlimit="10" cx="413.1" cy="465.9" rx="5.8" ry="4.1"/>
	
		<ellipse id="XMLID_103_" fill="#FFFFFF" stroke="#EDE6DD" stroke-width="2" stroke-miterlimit="10" cx="483.3" cy="452.6" rx="5.8" ry="4.1"/>
	
		<ellipse id="XMLID_155_" fill="#FFFFFF" stroke="#EDE6DD" stroke-width="2" stroke-miterlimit="10" cx="789.2" cy="243.3" rx="5.8" ry="4.1"/>
	
		<ellipse id="XMLID_156_" fill="#FFFFFF" stroke="#EDE6DD" stroke-width="2" stroke-miterlimit="10" cx="840.8" cy="249.4" rx="5.8" ry="4.1"/>
	
		<ellipse id="XMLID_157_" fill="#FFFFFF" stroke="#EDE6DD" stroke-width="2" stroke-miterlimit="10" cx="951.5" cy="159.3" rx="5.8" ry="4.1"/>
</g>
</svg>
